<?xml version="1.0" encoding="utf-8"?>
<!-- Generator: Adobe Illustrator 26.0.3, SVG Export Plug-In . SVG Version: 6.00 Build 0)  -->
<svg version="1.0" id="katman_1" xmlns="http://www.w3.org/2000/svg" xmlns:xlink="http://www.w3.org/1999/xlink" x="0px" y="0px"
	 viewBox="0 0 600 450" style="enable-background:new 0 0 600 450;" xml:space="preserve">
<style type="text/css">
	.st0{clip-path:url(#SVGID_00000160170347406610621830000014822811826495298472_);}
	.st1{clip-path:url(#SVGID_00000090295212855756613990000004058885787458571709_);}
	.st2{fill:#1C1E3F;}
	.st3{clip-path:url(#SVGID_00000016756836181292302190000013542925305595055260_);}
	.st4{clip-path:url(#SVGID_00000090280459313576635490000009693234851466066345_);}
	.st5{fill:url(#SVGID_00000075134763617594758760000005397272060259841175_);}
	.st6{clip-path:url(#SVGID_00000096060601925153946430000013855850749533913263_);}
	.st7{fill:url(#SVGID_00000006688920484909097630000015568183242627288709_);}
	.st8{clip-path:url(#SVGID_00000057836819093991926430000012079913197736599466_);}
	.st9{fill:url(#SVGID_00000044889480339091521200000002586188322189717421_);}
	.st10{clip-path:url(#SVGID_00000114059788035965485300000003121410203558168503_);}
	.st11{fill:url(#SVGID_00000049183500326487810970000014760436233562504107_);}
</style>
<g>
	<defs>
		<rect id="SVGID_1_" x="178.8" y="188.6" width="355.4" height="77.7"/>
	</defs>
	<clipPath id="SVGID_00000003105327020530501370000016983794623858625158_">
		<use xlink:href="#SVGID_1_"  style="overflow:visible;"/>
	</clipPath>
	<g style="clip-path:url(#SVGID_00000003105327020530501370000016983794623858625158_);">
		<g>
			<defs>
				<rect id="SVGID_00000147941506728377833400000007236149044553665974_" x="178.8" y="188.6" width="355.4" height="77.7"/>
			</defs>
			<clipPath id="SVGID_00000067213972663432724650000002676266806778309271_">
				<use xlink:href="#SVGID_00000147941506728377833400000007236149044553665974_"  style="overflow:visible;"/>
			</clipPath>
			<g style="clip-path:url(#SVGID_00000067213972663432724650000002676266806778309271_);">
				<path class="st2" d="M368.2,203.9h7v42.1h-7V203.9z M342.5,202.9c-4.6,0-8.8,1.5-12.2,4.4v-3.4h-7v42.1h7v-23.8
					c0-6.9,5.5-12.2,12.2-12.2s12.2,5.5,12.2,12.2v23.8h7v-23.8C361.7,211.5,353.1,202.9,342.5,202.9 M309.2,203.7h7v40.5
					c-0.2,12-9.9,21.7-21.9,21.9c-9.5,0.2-18.3-6.1-20.9-15.2h7.6c2.5,5.1,7.6,8.4,13.3,8.2c8.2-0.2,14.7-6.9,15-15v-3.4
					c-8.9,8.2-22.8,7.8-31-1.1c-8.2-8.9-7.8-22.8,1.1-31c8.4-7.8,21.5-7.8,29.9,0C309.4,208.4,309.2,203.7,309.2,203.7z
					 M309.2,224.8c0-8.2-6.7-15-14.8-15s-15,6.7-15,14.8c0,8.2,6.7,15,15,15C302.5,239.6,309.2,233,309.2,224.8 M200.7,209.8
					c5.7,0,11,3.4,13.5,8.6h7.4c-3.4-11.6-15.8-18.3-27.4-14.7c-11.6,3.4-18.3,15.8-14.7,27.4c3.6,11.6,15.8,18.3,27.4,14.7
					c7-2.1,12.6-7.6,14.7-14.7h-7.4c-3.4,7.4-12.4,10.7-19.8,7.2s-10.7-12.4-7.2-19.8C189.6,213.2,194.8,209.8,200.7,209.8
					 M269,224.8c0,12.2-9.9,21.9-21.9,21.9c-12.2,0-21.9-9.9-21.9-21.9c0-12,9.5-21.9,21.7-21.9S269,212.6,269,224.8 M262,224.8
					c0-8.2-6.7-15-14.8-15c-8.2,0-15,6.7-15,14.8c0,8.2,6.7,15,14.8,15C255.3,239.6,262,233,262,224.8 M491.3,202.9
					c-4.6,0-8.8,1.5-12.2,4.4v-3.4h-7v42.1h7v-23.8c0-6.9,5.5-12.4,12.2-12.4c6.9,0,12.4,5.5,12.4,12.2v23.8h7v-23.6
					C510.5,211.5,502,202.9,491.3,202.9 M458,203.9h7v42.1h-7V241c-8.9,8.2-22.8,7.8-31-1.1s-7.8-22.8,1.1-31
					c4-3.8,9.3-5.9,14.8-5.9s10.8,2.1,15,5.9V203.9z M458,224.8c0-8.2-6.7-14.8-15-14.8c-8.2,0-14.8,6.7-14.8,15
					c0,8.2,6.7,14.8,14.8,14.8C451.3,239.6,458,233,458,224.8 M534,210.7v-7h-10.5v-11.4h-7v39.6c0,7.8,6.3,14.1,14.1,14.1h3.4v-7
					h-3.4c-3.8,0-7-3.2-7-7v-21.1H534L534,210.7z M371.6,188.6c-2.7,0-4.6,2.1-4.6,4.6c0,2.7,2.1,4.6,4.6,4.6c2.7,0,4.6-2.1,4.6-4.6
					C376.4,190.7,374.3,188.6,371.6,188.6C371.8,188.6,371.8,188.6,371.6,188.6 M417.3,203.9h-35v7h25.9l-25.9,28v7h35v-7h-26.1
					l25.9-28L417.3,203.9L417.3,203.9z"/>
			</g>
		</g>
	</g>
</g>
<g>
	<defs>
		<rect id="SVGID_00000016069919073127403280000011870589231838550422_" x="66.1" y="183.5" width="99.2" height="83.7"/>
	</defs>
	<clipPath id="SVGID_00000170966889699279119920000003407797866811063687_">
		<use xlink:href="#SVGID_00000016069919073127403280000011870589231838550422_"  style="overflow:visible;"/>
	</clipPath>
	<g style="clip-path:url(#SVGID_00000170966889699279119920000003407797866811063687_);">
		<g>
			<defs>
				<polygon id="SVGID_00000065771425311904300290000005053609602354252714_" points="66.1,225.4 95.2,267.2 125.3,249.2 
					108.4,225.4 				"/>
			</defs>
			<clipPath id="SVGID_00000003068780722525565300000007997420196600149944_">
				<use xlink:href="#SVGID_00000065771425311904300290000005053609602354252714_"  style="overflow:visible;"/>
			</clipPath>
			<g style="clip-path:url(#SVGID_00000003068780722525565300000007997420196600149944_);">
				
					<linearGradient id="SVGID_00000170987154981880931200000009710277360129230010_" gradientUnits="userSpaceOnUse" x1="-384.0582" y1="186.1503" x2="-382.1552" y2="186.1503" gradientTransform="matrix(31.1065 0 0 21.9795 12012.8105 -3845.1824)">
					<stop  offset="0" style="stop-color:#4056A2"/>
					<stop  offset="1" style="stop-color:#4CBDC6"/>
				</linearGradient>
				<path style="fill:url(#SVGID_00000170987154981880931200000009710277360129230010_);" d="M66.1,225.4h59.2v41.9H66.1V225.4z"/>
			</g>
		</g>
		<g>
			<defs>
				<polygon id="SVGID_00000183963242889054428610000004034411933245890742_" points="95.2,267.2 136.7,267.2 165.3,225.4 				"/>
			</defs>
			<clipPath id="SVGID_00000180358825647448306900000014829396077680619936_">
				<use xlink:href="#SVGID_00000183963242889054428610000004034411933245890742_"  style="overflow:visible;"/>
			</clipPath>
			<g style="clip-path:url(#SVGID_00000180358825647448306900000014829396077680619936_);">
				
					<linearGradient id="SVGID_00000052826299087759248890000007426231143946621334_" gradientUnits="userSpaceOnUse" x1="-386.6376" y1="186.1503" x2="-384.7342" y2="186.1503" gradientTransform="matrix(36.8476 0 0 21.9795 14341.8906 -3845.1824)">
					<stop  offset="0" style="stop-color:#13457D"/>
					<stop  offset="1" style="stop-color:#279698"/>
				</linearGradient>
				<path style="fill:url(#SVGID_00000052826299087759248890000007426231143946621334_);" d="M95.2,225.4h70v41.9h-70V225.4z"/>
			</g>
		</g>
		<g>
			<defs>
				<polygon id="SVGID_00000096035564948402185890000001156541284280118167_" points="95.2,183.5 66.1,225.4 108.4,225.4 
					125.3,201.6 				"/>
			</defs>
			<clipPath id="SVGID_00000139256034506393860370000007647724692518266555_">
				<use xlink:href="#SVGID_00000096035564948402185890000001156541284280118167_"  style="overflow:visible;"/>
			</clipPath>
			<g style="clip-path:url(#SVGID_00000139256034506393860370000007647724692518266555_);">
				
					<linearGradient id="SVGID_00000018916072252961013760000016149841513925143169_" gradientUnits="userSpaceOnUse" x1="-384.0727" y1="185.2457" x2="-382.1693" y2="185.2457" gradientTransform="matrix(31.1316 0 0 21.9796 12022.8994 -3867.1917)">
					<stop  offset="0" style="stop-color:#282F6C"/>
					<stop  offset="1" style="stop-color:#2F96A8"/>
				</linearGradient>
				<path style="fill:url(#SVGID_00000018916072252961013760000016149841513925143169_);" d="M66.1,183.5h59.2v41.9H66.1V183.5z"/>
			</g>
		</g>
		<g>
			<defs>
				<polygon id="SVGID_00000062182947094788707340000011240767697642119049_" points="95.2,183.5 165.3,225.4 136.7,183.5 				"/>
			</defs>
			<clipPath id="SVGID_00000180366886247857096470000017778036562976550324_">
				<use xlink:href="#SVGID_00000062182947094788707340000011240767697642119049_"  style="overflow:visible;"/>
			</clipPath>
			<g style="clip-path:url(#SVGID_00000180366886247857096470000017778036562976550324_);">
				
					<linearGradient id="SVGID_00000068663296310963338570000004234107942612651649_" gradientUnits="userSpaceOnUse" x1="-386.6376" y1="185.2457" x2="-384.7342" y2="185.2457" gradientTransform="matrix(36.8476 0 0 21.9796 14341.8906 -3867.1917)">
					<stop  offset="0" style="stop-color:#4060AA"/>
					<stop  offset="1" style="stop-color:#99D3DB"/>
				</linearGradient>
				<path style="fill:url(#SVGID_00000068663296310963338570000004234107942612651649_);" d="M95.2,183.5h70v41.9h-70V183.5z"/>
			</g>
		</g>
	</g>
</g>
</svg>
