<?xml version="1.0" encoding="utf-8"?>
<!-- Generator: Adobe Illustrator 19.2.1, SVG Export Plug-In . SVG Version: 6.00 Build 0)  -->
<svg version="1.1" id="layer" xmlns="http://www.w3.org/2000/svg" xmlns:xlink="http://www.w3.org/1999/xlink" x="0px" y="0px"
	 viewBox="0 0 652 652" style="enable-background:new 0 0 652 652;" xml:space="preserve">
<style type="text/css">
	.st0{fill:#00428C;}
</style>
<path class="st0" d="M26.9,285.1c0,57.9,41,105.5,97.7,105.5h31.7V340h-22c-29.6,0-52.5-17.8-52.5-54.9s22.9-54.9,52.5-54.9h22
	v-49.1h-31.6C67.6,181.2,26.9,233.3,26.9,285.1z M261.5,391.9c23.8-6.7,39.9-29,38.6-53.7v-94.1h-46.4V327
	c0,13.3-2.4,22.6-16.3,22.6c-14.5,0-17.5-10.9-17.5-20.5v-85.1h-46.5v94.1c0,26,11.8,45.2,39.8,53.7v79h48.3V391.9z M578.6,181.2
	h48.3v209.5h-48.3V181.2z M363.8,326.1v-39.2h34.4v-44H364v-35h-46.7v130.2c0,27.8,17.5,52.5,54.3,52.5h27.2V346
	c-3.3,0.3-7,0.6-10.3,0.6C369.8,346,363.8,343,363.8,326.1z M485.7,352c-19.6,0-32.6-19-32.6-37.1c0-17.5,10.9-37.7,30.8-37.7
	c6.6-0.3,13.1,1.5,18.7,5.1l-39.5,25.9l18.4,29l72.7-50.1c-15.7-28.7-38-46.8-71.8-46.8c-42.5,0.7-76.3,35.7-75.6,78.2
	c0.7,41.5,34.1,74.9,75.6,75.6c36.5,0,67.3-24.1,81.1-57.3l-34.7-17.8C521.6,336.1,503.8,352,485.7,352z"/>
</svg>
